%FSLAX44Y44*%
%MOMM*%
G71*
G01*
G75*
G04 Layer_Physical_Order=1*
G04 Layer_Color=255*
%ADD10R,2.1800X1.6000*%
%ADD11R,1.0000X1.1000*%
%ADD12R,1.2500X1.1000*%
%ADD13R,3.2000X1.1200*%
%ADD14R,1.1000X1.0000*%
%ADD15R,1.1000X0.6000*%
%ADD16C,0.7000*%
%ADD17C,0.2540*%
%ADD18C,1.5240*%
%ADD19C,2.5000*%
%ADD20C,2.2000*%
%ADD21C,1.8000*%
%ADD22C,2.0000*%
%ADD23C,0.7000*%
%ADD24C,1.2700*%
%ADD25C,1.2100*%
%ADD26C,1.0000*%
D10*
X62738Y45720D02*
D03*
X154738D02*
D03*
X62738Y144272D02*
D03*
X154738D02*
D03*
D11*
X300482Y431664D02*
D03*
Y414664D02*
D03*
X219456Y429378D02*
D03*
Y412378D02*
D03*
D12*
X358968Y520192D02*
D03*
X335468D02*
D03*
X281244D02*
D03*
X257744D02*
D03*
X168468Y99822D02*
D03*
X144968D02*
D03*
D13*
X259334Y412510D02*
D03*
Y433310D02*
D03*
D14*
X91576Y100076D02*
D03*
X108576D02*
D03*
D15*
X247336Y481026D02*
D03*
Y462026D02*
D03*
X275336Y481026D02*
D03*
Y471526D02*
D03*
Y462026D02*
D03*
D16*
X229362Y519176D02*
X260096Y488442D01*
X229362Y519176D02*
Y547116D01*
X260096Y477266D02*
Y488442D01*
Y477266D02*
X265836Y471526D01*
X275336D01*
X300482Y446278D02*
Y468884D01*
Y431664D02*
Y446278D01*
X275336Y462026D02*
X284734D01*
X300482Y446278D01*
X288340Y481026D02*
X300482Y468884D01*
X372618Y84328D02*
X385572Y97282D01*
Y372110D01*
X346456Y84328D02*
X372618D01*
X77128Y432142D02*
X171043D01*
X58166Y451104D02*
X77128Y432142D01*
X53926Y408940D02*
X77128Y432142D01*
X53926Y384082D02*
Y408940D01*
X34290Y363220D02*
X53926Y382856D01*
Y384082D02*
X74534Y363474D01*
X97038Y340970D01*
X207961Y395224D02*
X244602D01*
X171043Y432142D02*
X207961Y395224D01*
X244602D02*
X261366D01*
X261874Y394716D02*
Y409970D01*
X259334Y412510D02*
X261874Y409970D01*
X247336Y445308D02*
Y462026D01*
Y445308D02*
X259066Y433578D01*
X259334Y433310D01*
X275336Y481026D02*
X288340D01*
X300482Y431664D02*
X325628Y456810D01*
X186182Y417003D02*
Y439420D01*
X204978Y458216D01*
X58166Y451104D02*
Y464566D01*
X199136Y429768D02*
X216526Y412378D01*
X219456D01*
X358968Y486344D02*
Y520192D01*
X281244D02*
X307914Y493522D01*
X312674D01*
X85852Y105800D02*
Y223520D01*
Y105800D02*
X91576Y100076D01*
X108576D02*
X144714D01*
X168468Y99822D02*
X190210D01*
X325628Y351444D02*
Y381508D01*
X237226Y470916D02*
X247336Y481026D01*
X218948Y470916D02*
X237226D01*
X218948D02*
X219456Y470408D01*
Y429378D02*
Y470408D01*
X300482Y414664D02*
X320176D01*
X299734Y325550D02*
X325628Y351444D01*
D17*
X242316Y532638D02*
X254762Y520192D01*
X162818Y341632D02*
X169422D01*
X162818Y316232D02*
X169422D01*
X162818Y240032D02*
X169422D01*
X181102Y568452D02*
X382524D01*
X108966Y496316D02*
X181102Y568452D01*
X382524D02*
X387858Y563118D01*
X97028Y495554D02*
X179578Y578104D01*
X387604D01*
X395986Y408686D02*
Y569722D01*
X387604Y578104D02*
X395986Y569722D01*
X127000Y317084D02*
Y392938D01*
X100086Y290170D02*
X127000Y317084D01*
X64262Y280416D02*
X65278D01*
X32766Y75692D02*
X62738Y45720D01*
X32766Y75692D02*
Y279654D01*
X17272Y16256D02*
Y92710D01*
X266446Y90424D02*
Y189738D01*
X255016Y87884D02*
Y176276D01*
X147828Y409956D02*
X147828Y409956D01*
X252476Y305308D01*
X169422Y341632D02*
X207518Y303536D01*
Y165354D02*
Y303536D01*
X169422Y316232D02*
X199390Y286264D01*
X169422Y240032D02*
X192024Y217430D01*
X74534Y363474D02*
X102362D01*
X313182Y519684D02*
X334960D01*
X108966Y489966D02*
Y496316D01*
X97028Y474472D02*
Y495554D01*
Y474472D02*
X106934Y464566D01*
X108966D01*
X199390Y161798D02*
Y286264D01*
X192024Y176530D02*
Y217430D01*
X65278Y146812D02*
Y280416D01*
X220726Y140462D02*
X223726D01*
X199390Y161798D02*
X220726Y140462D01*
X220472Y152400D02*
X223472D01*
X207518Y165354D02*
X220472Y152400D01*
X223472Y178054D02*
X242062Y159464D01*
Y88392D02*
Y159464D01*
X17272Y16256D02*
X23876Y9652D01*
X244348D01*
X269494Y34798D01*
Y50800D01*
X237490Y70358D02*
X255016Y87884D01*
X84074Y70358D02*
X237490D01*
X62738Y91694D02*
X84074Y70358D01*
X62738Y91694D02*
Y144272D01*
Y45720D02*
X82836Y65818D01*
X241840D01*
X266446Y90424D01*
X154738Y144272D02*
X172466D01*
X227076Y89662D01*
X154738Y45720D02*
X218694D01*
X227076Y54102D01*
X223472Y216408D02*
X239776D01*
X266446Y189738D01*
X223472Y203200D02*
X228092D01*
X255016Y176276D01*
X277368Y505460D02*
X281686D01*
X312166Y474980D02*
X336296D01*
X351536Y459740D01*
X281686Y505460D02*
X312166Y474980D01*
X387858Y415036D02*
Y563118D01*
X277114Y221996D02*
X372110Y127000D01*
X277114Y221996D02*
Y263398D01*
X184912Y355600D02*
X277114Y263398D01*
X351536Y432419D02*
Y459740D01*
X285464Y226854D02*
X372110Y140208D01*
X285464Y366347D02*
X351536Y432419D01*
X285464Y226854D02*
Y366347D01*
X335026Y266446D02*
X372110Y229362D01*
X335026Y266446D02*
Y362204D01*
X387858Y415036D01*
X348234Y265684D02*
X372110Y241808D01*
X348234Y265684D02*
Y360934D01*
X395986Y408686D01*
D18*
X162818Y240032D02*
D03*
Y265432D02*
D03*
Y290832D02*
D03*
Y316232D02*
D03*
Y341632D02*
D03*
Y367032D02*
D03*
X159766Y489966D02*
D03*
Y464566D02*
D03*
X134366Y489966D02*
D03*
Y464566D02*
D03*
X108966Y489966D02*
D03*
Y464566D02*
D03*
X83566Y489966D02*
D03*
Y464566D02*
D03*
X58166Y489966D02*
D03*
Y464566D02*
D03*
D19*
X366628Y419608D02*
D03*
D20*
X325628Y381508D02*
D03*
Y457708D02*
D03*
X299734Y31750D02*
D03*
Y325550D02*
D03*
D21*
X100086Y315570D02*
D03*
Y340970D02*
D03*
Y290170D02*
D03*
D22*
X367034Y325550D02*
D03*
D23*
X242316Y532638D02*
D03*
X372110Y241808D02*
D03*
Y127000D02*
D03*
Y229362D02*
D03*
X127000Y392938D02*
D03*
X184912Y355600D02*
D03*
X65278Y280416D02*
D03*
X223472Y216408D02*
D03*
X147828Y409956D02*
D03*
X252476Y305308D02*
D03*
X223472Y178054D02*
D03*
Y203200D02*
D03*
X223726Y140462D02*
D03*
X223472Y152400D02*
D03*
X32766Y279654D02*
D03*
X17272Y92710D02*
D03*
X192024Y176530D02*
D03*
X242062Y88392D02*
D03*
X277368Y505460D02*
D03*
X372110Y140208D02*
D03*
D24*
X229362Y547116D02*
D03*
X385572Y372110D02*
D03*
X244602Y395224D02*
D03*
X102362Y363474D02*
D03*
X34290Y363220D02*
D03*
X346456Y84328D02*
D03*
X204978Y458216D02*
D03*
X313182Y519684D02*
D03*
X261874Y394716D02*
D03*
X199136Y429768D02*
D03*
X358968Y486344D02*
D03*
X312674Y493522D02*
D03*
X269494Y50800D02*
D03*
X218948Y470916D02*
D03*
X320176Y414664D02*
D03*
D25*
X227076Y54102D02*
D03*
Y89662D02*
D03*
X85852Y223520D02*
D03*
D26*
X190246Y99858D02*
D03*
M02*
