%FSLAX44Y44*%
%MOMM*%
G71*
G01*
G75*
G04 Layer_Color=16711935*
%ADD10R,2.1800X1.6000*%
%ADD11R,1.0000X1.1000*%
%ADD12R,1.2500X1.1000*%
%ADD13R,3.2000X1.1200*%
%ADD14R,1.1000X1.0000*%
%ADD15R,1.1000X0.6000*%
%ADD16C,0.7000*%
%ADD17C,0.2540*%
%ADD18C,1.5240*%
%ADD19C,2.5000*%
%ADD20C,2.2000*%
%ADD21C,1.8000*%
%ADD22C,2.0000*%
%ADD23C,0.7000*%
%ADD24C,1.2700*%
%ADD25C,1.2100*%
%ADD26C,1.0000*%
%ADD27R,2.0000X0.6000*%
G04:AMPARAMS|DCode=28|XSize=2mm|YSize=0.8mm|CornerRadius=0.2mm|HoleSize=0mm|Usage=FLASHONLY|Rotation=270.000|XOffset=0mm|YOffset=0mm|HoleType=Round|Shape=RoundedRectangle|*
%AMROUNDEDRECTD28*
21,1,2.0000,0.4000,0,0,270.0*
21,1,1.6000,0.8000,0,0,270.0*
1,1,0.4000,-0.2000,-0.8000*
1,1,0.4000,-0.2000,0.8000*
1,1,0.4000,0.2000,0.8000*
1,1,0.4000,0.2000,-0.8000*
%
%ADD28ROUNDEDRECTD28*%
G04:AMPARAMS|DCode=29|XSize=2mm|YSize=0.8mm|CornerRadius=0.2mm|HoleSize=0mm|Usage=FLASHONLY|Rotation=0.000|XOffset=0mm|YOffset=0mm|HoleType=Round|Shape=RoundedRectangle|*
%AMROUNDEDRECTD29*
21,1,2.0000,0.4000,0,0,0.0*
21,1,1.6000,0.8000,0,0,0.0*
1,1,0.4000,0.8000,-0.2000*
1,1,0.4000,-0.8000,-0.2000*
1,1,0.4000,-0.8000,0.2000*
1,1,0.4000,0.8000,0.2000*
%
%ADD29ROUNDEDRECTD29*%
%ADD30C,0.5000*%
%ADD31C,1.0000*%
%ADD32C,0.1000*%
%ADD33C,0.2000*%
%ADD34C,0.3000*%
%ADD35R,1.0414X2.4384*%
%ADD36R,2.3832X1.8032*%
%ADD37R,1.2032X1.3032*%
%ADD38R,1.4532X1.3032*%
%ADD39R,3.4032X1.3232*%
%ADD40R,1.3032X1.2032*%
%ADD41R,1.3032X0.8032*%
%ADD42C,1.7272*%
%ADD43C,2.7032*%
%ADD44C,2.4032*%
%ADD45C,2.0032*%
%ADD46C,2.2032*%
%ADD47C,0.9032*%
%ADD48C,1.4732*%
%ADD49C,1.4132*%
%ADD50C,1.2032*%
%ADD51R,2.2000X13.3000*%
%ADD52R,2.2000X13.4000*%
%ADD53R,8.7884X2.1844*%
%ADD54R,2.2032X0.8032*%
G04:AMPARAMS|DCode=55|XSize=2.1mm|YSize=0.9mm|CornerRadius=0.25mm|HoleSize=0mm|Usage=FLASHONLY|Rotation=270.000|XOffset=0mm|YOffset=0mm|HoleType=Round|Shape=RoundedRectangle|*
%AMROUNDEDRECTD55*
21,1,2.1000,0.4000,0,0,270.0*
21,1,1.6000,0.9000,0,0,270.0*
1,1,0.5000,-0.2000,-0.8000*
1,1,0.5000,-0.2000,0.8000*
1,1,0.5000,0.2000,0.8000*
1,1,0.5000,0.2000,-0.8000*
%
%ADD55ROUNDEDRECTD55*%
G04:AMPARAMS|DCode=56|XSize=2.2032mm|YSize=1.0032mm|CornerRadius=0.3016mm|HoleSize=0mm|Usage=FLASHONLY|Rotation=270.000|XOffset=0mm|YOffset=0mm|HoleType=Round|Shape=RoundedRectangle|*
%AMROUNDEDRECTD56*
21,1,2.2032,0.4000,0,0,270.0*
21,1,1.6000,1.0032,0,0,270.0*
1,1,0.6032,-0.2000,-0.8000*
1,1,0.6032,-0.2000,0.8000*
1,1,0.6032,0.2000,0.8000*
1,1,0.6032,0.2000,-0.8000*
%
%ADD56ROUNDEDRECTD56*%
G04:AMPARAMS|DCode=57|XSize=2.2032mm|YSize=1.0032mm|CornerRadius=0.3016mm|HoleSize=0mm|Usage=FLASHONLY|Rotation=0.000|XOffset=0mm|YOffset=0mm|HoleType=Round|Shape=RoundedRectangle|*
%AMROUNDEDRECTD57*
21,1,2.2032,0.4000,0,0,0.0*
21,1,1.6000,1.0032,0,0,0.0*
1,1,0.6032,0.8000,-0.2000*
1,1,0.6032,-0.8000,-0.2000*
1,1,0.6032,-0.8000,0.2000*
1,1,0.6032,0.8000,0.2000*
%
%ADD57ROUNDEDRECTD57*%
D37*
X346456Y60062D02*
D03*
Y43062D02*
D03*
X376428Y202810D02*
D03*
Y185810D02*
D03*
X16002Y135772D02*
D03*
Y152772D02*
D03*
X130302Y302886D02*
D03*
Y285886D02*
D03*
X130048Y257674D02*
D03*
Y240674D02*
D03*
X64770Y302396D02*
D03*
Y319396D02*
D03*
X33528Y302650D02*
D03*
Y319650D02*
D03*
D40*
X217542Y254254D02*
D03*
X200542D02*
D03*
X77606Y257556D02*
D03*
X94606D02*
D03*
X222368Y489712D02*
D03*
X205368D02*
D03*
X189348Y533400D02*
D03*
X172348D02*
D03*
D42*
X162818Y240032D02*
D03*
Y265432D02*
D03*
Y290832D02*
D03*
Y316232D02*
D03*
Y341632D02*
D03*
Y367032D02*
D03*
X159766Y489966D02*
D03*
Y464566D02*
D03*
X134366Y489966D02*
D03*
Y464566D02*
D03*
X108966Y489966D02*
D03*
Y464566D02*
D03*
X83566Y489966D02*
D03*
Y464566D02*
D03*
X58166Y489966D02*
D03*
Y464566D02*
D03*
D43*
X366628Y419608D02*
D03*
D44*
X325628Y381508D02*
D03*
Y457708D02*
D03*
X299734Y31750D02*
D03*
Y325550D02*
D03*
D45*
X100086Y315570D02*
D03*
Y340970D02*
D03*
Y290170D02*
D03*
D46*
X367034Y325550D02*
D03*
D47*
X242316Y532638D02*
D03*
X372110Y241808D02*
D03*
Y127000D02*
D03*
Y229362D02*
D03*
X127000Y392938D02*
D03*
X184912Y355600D02*
D03*
X65278Y280416D02*
D03*
X223472Y216408D02*
D03*
X147828Y409956D02*
D03*
X252476Y305308D02*
D03*
X223472Y178054D02*
D03*
Y203200D02*
D03*
X223726Y140462D02*
D03*
X223472Y152400D02*
D03*
X32766Y279654D02*
D03*
X17272Y92710D02*
D03*
X192024Y176530D02*
D03*
X242062Y88392D02*
D03*
X277368Y505460D02*
D03*
X372110Y140208D02*
D03*
D48*
X229362Y547116D02*
D03*
X385572Y372110D02*
D03*
X244602Y395224D02*
D03*
X102362Y363474D02*
D03*
X34290Y363220D02*
D03*
X346456Y84328D02*
D03*
X204978Y458216D02*
D03*
X313182Y519684D02*
D03*
X261874Y394716D02*
D03*
X199136Y429768D02*
D03*
X358968Y486344D02*
D03*
X312674Y493522D02*
D03*
X269494Y50800D02*
D03*
X218948Y470916D02*
D03*
X320176Y414664D02*
D03*
D49*
X227076Y54102D02*
D03*
Y89662D02*
D03*
X85852Y223520D02*
D03*
D50*
X190246Y99858D02*
D03*
D51*
X40846Y111479D02*
D03*
D52*
X168846Y111979D02*
D03*
D53*
X104648Y201930D02*
D03*
D54*
X252476Y101854D02*
D03*
Y114554D02*
D03*
Y127254D02*
D03*
Y139954D02*
D03*
Y152654D02*
D03*
Y165354D02*
D03*
Y178054D02*
D03*
Y190754D02*
D03*
Y203454D02*
D03*
Y216154D02*
D03*
Y228854D02*
D03*
Y241554D02*
D03*
Y254254D02*
D03*
Y266954D02*
D03*
X346476Y101854D02*
D03*
Y114554D02*
D03*
Y127254D02*
D03*
Y139954D02*
D03*
Y152654D02*
D03*
Y165354D02*
D03*
Y178054D02*
D03*
Y190754D02*
D03*
Y203454D02*
D03*
Y216154D02*
D03*
Y228854D02*
D03*
Y241554D02*
D03*
Y254254D02*
D03*
Y266954D02*
D03*
D55*
X135846Y201978D02*
D03*
X145846D02*
D03*
X73846D02*
D03*
X63846D02*
D03*
D56*
X122846D02*
D03*
X110846D02*
D03*
X98846D02*
D03*
X86846D02*
D03*
D57*
X168846Y44978D02*
D03*
Y56978D02*
D03*
Y68978D02*
D03*
Y80978D02*
D03*
Y92978D02*
D03*
Y104978D02*
D03*
Y116978D02*
D03*
Y128978D02*
D03*
Y140978D02*
D03*
Y152978D02*
D03*
Y164978D02*
D03*
Y176978D02*
D03*
X40846D02*
D03*
Y164978D02*
D03*
Y152978D02*
D03*
Y140978D02*
D03*
Y128978D02*
D03*
Y116978D02*
D03*
Y104978D02*
D03*
Y92978D02*
D03*
Y80978D02*
D03*
Y68978D02*
D03*
Y56978D02*
D03*
Y44978D02*
D03*
M02*
